# xmcd
#
# Track frame offsets:
#	150
#	18857
#	35387
#	60430
#	80440
#	96302
#	103375
#	117127
#	145945
#	161635
#	178487
#	211367
#	228242
#	245615
#	264704
#	278317
#	297002
#
# Disc length: 4195 seconds
#
# Revision: 1
# Processed by: cddbd v1.5.1PL0 Copyright (c) Steve Scherf et al.
# Submitted via: audiograbber 1.83.01
#
DISCID=ee106111
DTITLE=Shania TWAIN - Live in concert 1999
DYEAR=1999
DGENRE=Country
TTITLE0=Man, I feel like a woman
TTITLE1=Honey, I'm home
TTITLE2=You win my love
TTITLE3=Whose Bed Have Your Boots Been Under
TTITLE4=You're still the one
TTITLE5=Gone and done it
TTITLE6=Come on over
TTITLE7=Love Gets Me Everytime
TTITLE8=Holdin' on to love
TTITLE9=When
TTITLE10=Ballad medley
TTITLE11=That Don't Impress Me Much
TTITLE12=It don't take two
TTITLE13=Black eyes, blue tears
TTITLE14=No one needs to know
TTITLE15=Any man of mine
TTITLE16=Don't be stupid, you know I love you
EXTD=
EXTT0=
EXTT1=
EXTT2=
EXTT3=
EXTT4=
EXTT5=
EXTT6=
EXTT7=
EXTT8=
EXTT9=
EXTT10=
EXTT11=
EXTT12=
EXTT13=
EXTT14=
EXTT15=
EXTT16=
PLAYORDER=
